# xmcd
#
# Track frame offsets: 
#        225
#        17225
#        36697
#        50801
#        73404
#        86033
#        105799
#        119091
#        144679
#        159275
#        177453
#        190516
#        204725
#        220558
#        242416
#        265471
#
# Disc length: 3750 seconds
#
# Revision: 0
# Processed by: cddbd v1.5PL3 Copyright (c) Steve Scherf et al.
# Submitted via: ExactAudioCopy v0.90b4
#
DISCID=f30ea310
DTITLE=Belivo - Générations
DYEAR=2001
DGENRE=Folk
TTITLE0=Jean's/Donegal Reel
TTITLE1=Les yeux noirs
TTITLE2=Albénie
TTITLE3=La ballade de l'amour
TTITLE4=Island Ferry
TTITLE5=La tragédie de St-André
TTITLE6=Riche ou pauvre
TTITLE7=L'espérance sera ma joie
TTITLE8=Écrivez-moi
TTITLE9=La prostate
TTITLE10=Aline
TTITLE11=Prière d'une mère
TTITLE12=Mouth of the Tobique
TTITLE13=La ballade du nord
TTITLE14=Au chant de l'alouette
TTITLE15=Lac de Côme
EXTD=
EXTT0=
EXTT1=
EXTT2=
EXTT3=
EXTT4=
EXTT5=
EXTT6=
EXTT7=
EXTT8=
EXTT9=
EXTT10=
EXTT11=
EXTT12=
EXTT13=
EXTT14=
EXTT15=
PLAYORDER=
